<?xml version="1.0" standalone="no"?>
<!DOCTYPE svg PUBLIC "-//W3C//DTD SVG 20010904//EN"
 "http://www.w3.org/TR/2001/REC-SVG-20010904/DTD/svg10.dtd">
<svg version="1.0" xmlns="http://www.w3.org/2000/svg"
 width="371.000000pt" height="410.000000pt" viewBox="0 0 371.000000 410.000000"
 preserveAspectRatio="xMidYMid meet">

<g transform="translate(0.000000,410.000000) scale(0.100000,-0.100000)"
fill="#000000" stroke="none">
<path d="M126 4075 l-26 -24 0 -566 c0 -311 3 -565 6 -565 3 0 54 21 113 46
236 103 484 240 561 310 l34 32 -59 64 c-33 35 -89 106 -125 157 -264 380
-420 571 -467 571 -5 0 -22 -11 -37 -25z"/>
<path d="M3509 4075 c-44 -29 -106 -107 -229 -285 -124 -180 -235 -321 -315
-400 -36 -35 -65 -72 -65 -80 0 -25 29 -47 245 -190 204 -135 374 -226 439
-237 l36 -6 1 269 c1 148 1 402 0 564 0 162 -1 305 -1 318 0 23 -43 72 -64 72
-6 0 -28 -11 -47 -25z"/>
<path d="M1890 3509 c-180 -113 -294 -275 -327 -466 -31 -176 -1 -486 67 -693
40 -123 45 -162 44 -350 -1 -131 -5 -200 -16 -236 l-14 -51 50 26 c46 23 62
26 156 26 92 0 111 -3 156 -25 l51 -26 -14 35 c-21 51 -51 212 -58 321 -8 109
6 249 36 360 83 309 329 488 644 467 273 -19 480 -144 765 -462 l62 -70 -61
120 c-138 269 -457 642 -670 784 -220 146 -495 241 -748 257 -79 5 -92 3 -123
-17z"/>
<path d="M545 3043 c-22 -8 -129 -46 -239 -83 -109 -38 -199 -70 -201 -72 -1
-2 -5 -133 -8 -293 -6 -289 -6 -290 12 -240 56 155 138 308 231 433 69 91 178
210 223 243 45 32 41 35 -18 12z"/>
<path d="M3251 2953 c57 -61 173 -217 223 -300 48 -81 92 -178 124 -278 l27
-82 -3 251 c-2 138 -7 255 -12 262 -6 6 -29 17 -52 24 -71 21 -229 94 -293
134 l-60 39 46 -50z"/>
<path d="M784 2475 c-75 -16 -211 -72 -236 -97 -23 -23 -23 -46 2 -136 52
-186 178 -354 291 -386 30 -8 77 -16 104 -18 l50 -3 14 312 c8 171 11 319 8
327 -5 13 -22 16 -89 15 -46 0 -110 -7 -144 -14z"/>
<path d="M2609 2489 c0 -2 -2 -125 -3 -274 -3 -200 -7 -284 -18 -322 -8 -29
-13 -55 -10 -58 20 -20 217 6 282 37 113 54 218 205 261 377 19 76 19 84 5
106 -20 30 -88 66 -193 101 -62 21 -103 28 -200 32 -68 2 -123 3 -124 1z"/>
<path d="M3688 2023 c-4 -42 -18 -98 -34 -135 -21 -49 -28 -87 -34 -173 -9
-126 -13 -154 -46 -286 -69 -280 -185 -504 -384 -742 -99 -118 -210 -217 -350
-309 -287 -191 -562 -280 -915 -295 -368 -15 -699 77 -1015 284 -476 312 -786
821 -816 1343 -4 66 -14 114 -30 157 -13 34 -27 89 -31 123 -3 33 -8 59 -10
56 -2 -2 -8 -54 -13 -115 -26 -325 72 -716 257 -1024 235 -393 673 -724 1113
-842 131 -35 351 -65 474 -65 263 0 608 80 834 194 678 341 1082 1072 1013
1831 l-6 70 -7 -72z"/>
<path d="M1713 1605 c-63 -14 -103 -30 -103 -43 0 -3 7 -26 16 -49 16 -40 19
-43 54 -43 31 0 44 -7 69 -35 17 -20 31 -43 31 -53 0 -9 9 -32 20 -50 39 -64
16 -161 -57 -242 -101 -112 -268 -152 -422 -100 -45 15 -67 18 -75 10 -18 -18
27 -51 90 -66 177 -41 339 7 454 135 l59 65 22 -30 c70 -92 144 -143 246 -169
128 -33 323 0 323 55 0 26 -16 25 -76 -2 -99 -44 -252 -23 -353 49 -75 53
-110 105 -123 185 -11 60 -10 67 9 92 11 14 24 41 27 60 10 51 56 96 98 96 30
0 36 5 56 46 l22 45 -44 20 c-91 40 -225 50 -343 24z"/>
<path d="M2132 1371 c-21 -13 -10 -46 16 -49 27 -4 40 22 22 43 -14 17 -20 18
-38 6z"/>
</g>
</svg>
